<?xml version="1.0" encoding="UTF-8"?>
<svg width="97px" height="65px" viewBox="0 0 97 65" version="1.1" xmlns="http://www.w3.org/2000/svg" xmlns:xlink="http://www.w3.org/1999/xlink">
    <title>parchment</title>
    <g id="Page-1" stroke="none" stroke-width="1" fill="none" fill-rule="evenodd">
        <g id="parchment" transform="translate(0.485, 0)" fill="#183446" fill-rule="nonzero">
            <path d="M95.5843026,52.5513094 C95.5709312,52.519424 95.5544742,52.4906243 95.5411029,52.4607959 C95.5092175,52.3898251 95.4763035,52.3209115 95.4382467,52.2571406 C95.4166469,52.2211409 95.3899043,52.1892555 95.3683045,52.1542844 C95.3302476,52.098742 95.2921908,52.0452567 95.2500198,51.9938286 C95.22122,51.9609146 95.1903632,51.9290292 95.1605349,51.8992009 C95.1163067,51.8529156 95.0710499,51.8076588 95.0216789,51.7665163 C94.9887649,51.736688 94.9537938,51.7099454 94.9188227,51.6842313 C94.8673946,51.6461745 94.8149379,51.6101749 94.7614526,51.5772609 C94.7244244,51.5536039 94.6863676,51.5309756 94.6483108,51.5104043 C94.6400823,51.5062901 94.6308252,51.5032044 94.6246538,51.4990901 L62.7165915,51.5176042 C62.3452805,51.5741752 62.1807105,51.7737163 62.0891684,52.0874278 L61.3815175,56.8784714 C61.2930612,57.4770947 60.8003798,57.9327478 60.1955851,57.9738903 C60.1667853,57.9749189 60.136957,57.976976 60.1081573,57.976976 C59.5403909,57.976976 59.0333096,57.6005222 58.8728539,57.0471556 L57.5460084,52.4422818 C57.4205238,51.9691431 57.0440699,51.5566896 56.6388164,51.5278899 C56.6275022,51.5278899 56.6203022,51.5217185 56.6120737,51.5196614 L44.2168684,51.5278899 C43.1708205,51.6657172 42.7305958,52.0236569 42.4868265,52.6479943 C42.3695704,53.4297017 42.2255716,54.2803228 42.0610017,55.0322019 C41.101353,59.4354775 37.6700688,62.6775061 33.5146768,62.6775061 C32.1497745,62.6775061 32.075718,63.194873 32.0304613,63.6032123 C32.0304613,64.802516 33.3254213,65 33.9168447,65 C34.1266714,65 37.5147559,65 37.5620698,65 C37.5692697,65 86.4249545,64.9393148 86.4249545,64.9393148 C86.656381,64.9578289 86.8878076,64.9578289 87.1182056,64.9578289 C87.4319171,64.9578289 87.7415144,64.9300578 88.0500831,64.8950866 C88.0860828,64.8920009 88.123111,64.8878867 88.1591107,64.8806868 C91.1018277,64.5412612 93.8264894,62.7752196 95.2510483,59.9353588 C96.4009811,57.6406361 96.5254371,54.9509455 95.5915025,52.5564523 C95.5873882,52.5554237 95.5853311,52.5533666 95.5843026,52.5513094 Z" id="Path"></path>
            <path d="M13.0503996,18.5820081 C12.8796582,17.4824749 12.6883456,16.2050004 12.4507477,14.8699264 C12.2131498,13.5369096 11.9292666,12.1339505 11.5198987,10.8554474 C11.3162434,10.2167102 10.550993,7.96518712 9.05854894,7.46016299 C8.04027217,7.11559459 6.69388401,7.73581771 5.85869135,9.00917794 C5.46166627,9.61602975 4.85481446,10.0377403 4.17493473,9.78779967 C3.49505499,9.53785901 3.14637234,8.78392278 3.396313,8.10404304 C3.42305562,8.04335786 4.00110768,6.62702745 4.96692776,5.74143524 C7.19787958,3.69356753 10.2599098,4.65115911 10.4800222,4.73550123 C12.0886937,5.41538096 13.6500514,6.86256824 14.689928,9.72197167 C15.2474088,11.2535011 15.686605,13.0761136 16.0157449,14.6467284 C16.7881953,18.333096 18.4966374,23.9593322 18.4966374,23.9593322 C18.7136641,24.8171533 18.9821188,25.3571485 19.8697682,25.4939473 L25.9773716,25.9917715 C26.5945091,26.0411425 27.0871904,26.5235383 27.1530184,27.1386186 C27.2178179,27.7536989 26.8351927,28.3276367 26.2437693,28.505578 L21.5226679,29.9229369 C20.3521639,30.3672759 20.5136482,30.8938998 20.8623309,32.0746895 C20.913759,32.2464594 27.5222723,55.4569982 27.5222723,55.4569982 C29.1062584,58.4058865 31.464752,59.4426774 33.377878,59.3675924 C36.0027692,59.2595933 38.1936071,57.2261255 38.8272015,54.3173511 C39.2375979,52.4319962 39.5307382,49.7032202 39.5338239,49.6764776 C39.6233088,48.8361421 40.3319883,48.1747765 41.1774666,48.1737479 L79.7012422,48.1192341 L77.8776011,41.794604 C77.8498299,41.7678614 77.8241158,41.7164333 77.8014875,41.6351768 C77.5361184,40.7300419 76.878867,39.9390775 76.2000158,39.7601076 L69.9946989,38.134979 C69.3878471,37.9765804 68.9846507,37.4016141 69.0391645,36.7772767 C69.0957354,36.1519108 69.5945882,35.6582008 70.2189255,35.6088298 L75.031569,35.2303189 C75.6147638,35.175805 75.7999051,34.712952 75.6517921,34.209985 L75.6877918,34.202785 L69.8177862,13.8475354 C69.5873882,13.2818261 69.2675053,12.826173 68.7203102,12.7654878 L60.1791281,12.818973 C60.1750138,12.818973 60.169871,12.818973 60.1647282,12.818973 C59.5270195,12.818973 58.9859957,12.3880054 58.8944537,11.7554395 C58.8008545,11.1187594 59.1927368,10.5489358 59.8129599,10.3709945 L67.1784951,8.26347021 C67.1949521,8.25524171 67.2062663,8.24495609 67.225809,8.23878471 C67.8470607,8.02998655 68.0188306,7.73684627 67.9159744,7.28222169 C66.8390695,4.48967482 66.0306195,2.46443548 63.1568162,1.02341957 C62.8184192,0.853706781 62.4738508,0.709708047 62.1251681,0.58628056 C60.893979,0.11622755 59.739932,0 59.015824,0 C58.7699976,0 8.58541024,0.018514123 8.57512461,0.018514123 C5.40818103,0.174855606 2.41095023,2.01186803 0.890735027,5.04201282 C0.364111085,6.09217501 0,7.85204526 0,9.73122874 L0,16.4971121 C0,17.6131023 0.855763905,18.7013213 1.97175409,18.7013213 L13.0678851,18.7013213 C13.0627423,18.6601788 13.0565709,18.622122 13.0503996,18.5820081 Z" id="Path"></path>
        </g>
    </g>
</svg>