<?xml version="1.0" encoding="UTF-8"?>
<svg width="41px" height="68px" viewBox="0 0 41 68" version="1.1" xmlns="http://www.w3.org/2000/svg" xmlns:xlink="http://www.w3.org/1999/xlink">
    <title>Group</title>
    <g id="Page-2" stroke="none" stroke-width="1" fill="none" fill-rule="evenodd">
        <g id="Group" transform="translate(1.1653, 1.2227)" fill="#183446" stroke="#183446">
            <path d="M38.492284,14.6450601 C39.2777982,22.8952236 27.5766764,29.0407825 24.3705608,34.4259991 C19.6048889,42.430756 18.6144529,48.1019824 18.6144529,48.889237 C18.6144529,50.2061188 19.4960513,50.7792974 21.2592481,50.6087726 L17.1832012,53.6794145 C13.8893938,52.2301734 13.8893938,47.3299456 17.1832012,38.9787312 C22.1239123,26.4519096 32.1063045,23.2456219 30.6547904,15.4656524 C29.6871144,10.279006 22.7421844,6.70783411 9.82000042,4.75213662 C7.48647139,8.2152217 6.15171306,10.5479293 5.81572543,11.7502594 C5.4797378,12.9525895 6.21181137,13.917523 8.01194615,14.6450601 L1.95858287,17.9663057 C-0.0322993222,16.0980471 -0.505395889,14.4488879 0.539293172,13.018828 C2.06994073,10.9235465 8.11840263,5.52319711 9.82000042,4.25480522 C11.4365422,3.0498151 13.8909425,1.63154669 17.1832012,0 C30.8655803,4.26326439 37.9686079,9.14495109 38.492284,14.6450601 Z" id="Path"></path>
            <path d="M21.8123405,55.3538541 C21.0809351,56.779356 20.387585,57.7535756 19.7322902,58.2765128 C19.0769954,58.79945 17.8920892,59.3241131 16.1775716,59.8505021 C17.0997647,60.4707977 17.7368356,61.102584 18.0887842,61.7458611 C18.4407329,62.3891381 18.7427901,63.4738511 18.9949561,65 C20.1714924,63.4032306 21.1106205,62.3185177 21.8123405,61.7458611 C22.5140605,61.1732045 23.5449593,60.6502265 24.905037,60.176927 C23.7805969,59.5293063 23.0198131,58.8958349 22.6226856,58.2765128 C22.225558,57.6571907 21.955443,56.6829711 21.8123405,55.3538541 Z" id="Path-2"></path>
        </g>
    </g>
</svg>