<?xml version="1.0" encoding="UTF-8"?>
<svg width="65px" height="65px" viewBox="0 0 65 65" version="1.1" xmlns="http://www.w3.org/2000/svg" xmlns:xlink="http://www.w3.org/1999/xlink">
    <title>shears</title>
    <g id="Page-1" stroke="none" stroke-width="1" fill="none" fill-rule="evenodd">
        <g id="shears" transform="translate(0.0016, 0)" fill="#183446" fill-rule="nonzero">
            <path d="M64.5504073,13.7966902 L39.3139542,33.7356384 C40.6258414,36.0184091 40.1197657,38.9658114 37.9955509,40.6512824 L18.9015102,55.7358135 C16.7729514,57.4147685 13.7864532,57.2258046 11.8642343,55.4230457 L9.57277564,53.129415 C7.7700167,51.2115402 7.58322481,48.2250419 9.26217982,46.0964832 L24.342367,27.0024424 C26.025666,24.8760557 28.9795842,24.367808 31.2623549,25.6796952 L51.2013032,0.44758602 C46.9963136,-2.46289227 32.6068221,9.11820492 18.8472102,26.5376347 C5.08542628,43.9527204 -2.85105706,60.6314986 0.949940708,64.0502246 C4.3643227,67.8512224 21.0452729,59.9125671 38.4668746,46.1507831 C55.8797884,32.3868272 67.4608856,17.9995077 64.5504073,13.7966902 Z"></path>
        </g>
    </g>
</svg>